<?xml version="1.0" encoding="UTF-8" standalone="no"?>
<svg xmlns:rdf="http://www.w3.org/1999/02/22-rdf-syntax-ns#" xmlns="http://www.w3.org/2000/svg" version="1.1" xmlns:cc="http://creativecommons.org/ns#" xmlns:dc="http://purl.org/dc/elements/1.1/" viewBox="0 0 100 100">
	<g transform="translate(0 -952)">
		<path d="m40 954c-9.17 0-16.7 5.68-22.7 14.7-2.72 4.07-5.03 8.86-7.04 14 1.89 5.93 4.08 12.2 6.61 18.6 3.89 9.74 8.58 19.4 13.9 27.5 5.62-8.32 11.5-17.8 17.5-27.8 6.27-10.5 12.5-20.5 18.4-29.2-0.685-0.94-1.33-1.98-2.04-2.86-7.3-9-15.5-15-24.7-15zm50 0c-1.67 0-4.15 1.21-7.02 3.79s-6.1 6.4-9.49 11c-0.609 0.831-1.29 1.97-1.91 2.86 5.99 8.76 11.1 19.1 15.3 29.6 1.91 4.78 3.47 9.44 5.02 14 1.45-4.47 2.73-9.05 3.66-13.7 2.46-12.3 3.06-24.7 1.85-33.7-0.6-4-1.7-8-3-10-1.4-3-2.7-4-4.4-4zm-20.8 21.2c-5.62 8.32-11.5 17.8-17.5 27.8-6.27 10.5-12.5 20.5-18.4 29.2 0.685 0.94 1.33 1.98 2.04 2.86 7.3 9.12 15.5 14.9 24.7 14.9 9.17 0 16.7-5.68 22.7-14.7 2.72-4.07 5.03-8.86 7.04-14-1.89-5.93-4.08-12.2-6.61-18.6-3.89-9.74-8.58-19.4-13.9-27.5zm-61.1 14c-1.45 4.47-2.73 9.05-3.66 13.7-2.46 12.3-3.06 24.7-1.85 33.7 0.604 4.53 1.68 8.23 3.04 10.6 1.35 2.37 2.69 3.29 4.36 3.29s4.15-1.21 7.02-3.79 6.1-6.4 9.49-11c0.609-0.831 1.29-1.97 1.91-2.86-5.99-8.77-11.1-19.1-15.3-29.6-1.91-4.78-3.47-9.44-5.02-14z"/>
	</g>
</svg>
